# Blender v3.1.2 OBJ File: 'nexus_fa.blend'
# www.blender.org
o Cube.002_Cube.005
v -0.028917 0.000000 0.342536
v -0.029587 0.400051 0.343205
v -0.028917 0.000000 0.284701
v -0.029587 0.400051 0.284032
v 0.028917 0.000000 0.342536
v 0.029587 0.400051 0.343205
v 0.028917 0.000000 0.284701
v 0.029587 0.400051 0.284032
v -0.023257 0.176833 0.336876
v -0.027459 0.353665 0.341078
v -0.027459 0.353665 0.286160
v -0.023257 0.176833 0.290361
v 0.027459 0.353665 0.286160
v 0.023257 0.176833 0.290361
v 0.027459 0.353665 0.341078
v 0.023257 0.176833 0.336876
v -0.028917 0.000000 -0.284701
v -0.029587 0.400051 -0.284032
v -0.028917 0.000000 -0.342536
v -0.029587 0.400051 -0.343205
v 0.028917 0.000000 -0.284701
v 0.029587 0.400051 -0.284032
v 0.028917 0.000000 -0.342536
v 0.029587 0.400051 -0.343205
v -0.023257 0.176833 -0.290361
v -0.027459 0.353665 -0.286160
v -0.027459 0.353665 -0.341078
v -0.023257 0.176833 -0.336876
v 0.027459 0.353665 -0.341078
v 0.023257 0.176833 -0.336876
v 0.027459 0.353665 -0.286160
v 0.023257 0.176833 -0.290361
v -0.019917 0.245332 -0.322660
v -0.020378 0.244871 0.320745
v -0.019917 0.285166 -0.322660
v -0.020378 0.285627 0.320745
v 0.019917 0.245332 -0.322660
v 0.020378 0.244871 0.320745
v 0.019917 0.285166 -0.322660
v 0.020378 0.285627 0.320745
v -0.011117 0.252735 -0.116343
v -0.019772 0.245477 0.204188
v -0.019772 0.285021 0.204188
v -0.011117 0.277763 -0.116343
v 0.019772 0.285021 0.204188
v 0.011117 0.277763 -0.104851
v 0.019772 0.245477 0.204188
v 0.011117 0.252735 -0.104851
v -0.019917 0.143752 0.318656
v -0.020378 0.143291 -0.324750
v -0.019917 0.183586 0.318656
v -0.020378 0.184047 -0.324750
v 0.019917 0.143752 0.318656
v 0.020378 0.143291 -0.324750
v 0.019917 0.183586 0.318656
v 0.020378 0.184047 -0.324750
v -0.011117 0.151154 0.112338
v -0.019772 0.143897 -0.208192
v -0.019772 0.183441 -0.208192
v -0.011117 0.176183 0.112338
v 0.019772 0.183441 -0.208192
v 0.011117 0.176183 0.100847
v 0.019772 0.143897 -0.208192
v 0.011117 0.151154 0.100847
vt 0.688508 0.515021
vt 0.696685 0.515021
vt 0.696685 0.539552
vt 0.688508 0.539552
vt 0.696685 0.564084
vt 0.688508 0.564084
vt 0.696685 0.588616
vt 0.688508 0.588616
vt 0.696685 0.613147
vt 0.688508 0.613147
vt 0.647622 0.564084
vt 0.672154 0.564084
vt 0.672154 0.588616
vt 0.647622 0.588616
vt 0.721217 0.564084
vt 0.721217 0.588616
vt 0.680331 0.588616
vt 0.680331 0.613147
vt 0.672154 0.613147
vt 0.680331 0.564084
vt 0.672154 0.539552
vt 0.680331 0.539552
vt 0.672154 0.515021
vt 0.680331 0.515021
vt 0.688508 0.515021
vt 0.696685 0.515021
vt 0.696685 0.539552
vt 0.688508 0.539552
vt 0.696685 0.564084
vt 0.688508 0.564084
vt 0.696685 0.588616
vt 0.688508 0.588616
vt 0.696685 0.613147
vt 0.688508 0.613147
vt 0.647622 0.564084
vt 0.672154 0.564084
vt 0.672154 0.588616
vt 0.647622 0.588616
vt 0.721217 0.564084
vt 0.721217 0.588616
vt 0.680331 0.588616
vt 0.680331 0.613147
vt 0.672154 0.613147
vt 0.680331 0.564084
vt 0.672154 0.539552
vt 0.680331 0.539552
vt 0.672154 0.515021
vt 0.680331 0.515021
vt 0.688508 0.515021
vt 0.696685 0.515021
vt 0.696685 0.539552
vt 0.688508 0.539552
vt 0.696685 0.564084
vt 0.688508 0.564084
vt 0.696685 0.588616
vt 0.688508 0.588616
vt 0.696685 0.613147
vt 0.688508 0.613147
vt 0.672154 0.588616
vt 0.680331 0.588616
vt 0.680331 0.613147
vt 0.672154 0.613147
vt 0.672154 0.564084
vt 0.680331 0.564084
vt 0.672154 0.539552
vt 0.680331 0.539552
vt 0.672154 0.515021
vt 0.680331 0.515021
vt 0.688508 0.515021
vt 0.688508 0.539552
vt 0.696685 0.539552
vt 0.696685 0.515021
vt 0.688508 0.564084
vt 0.696685 0.564084
vt 0.688508 0.588616
vt 0.696685 0.588616
vt 0.688508 0.613147
vt 0.696685 0.613147
vt 0.672154 0.588616
vt 0.672154 0.613147
vt 0.680331 0.613147
vt 0.680331 0.588616
vt 0.672154 0.564084
vt 0.680331 0.564084
vt 0.672154 0.539552
vt 0.680331 0.539552
vt 0.672154 0.515021
vt 0.680331 0.515021
vn -0.9989 -0.0458 0.0000
vn 0.0000 -0.0458 -0.9989
vn 0.9989 -0.0458 0.0000
vn 0.0000 -0.0458 0.9989
vn 0.0000 -1.0000 0.0000
vn 0.0000 1.0000 0.0000
vn 0.0000 0.0320 0.9995
vn 0.0000 -0.0238 0.9997
vn 0.9995 0.0320 0.0000
vn 0.9997 -0.0238 0.0000
vn 0.0000 0.0320 -0.9995
vn 0.0000 -0.0238 -0.9997
vn -0.9995 0.0320 0.0000
vn -0.9997 -0.0238 0.0000
vn -1.0000 0.0000 -0.0052
vn 0.0000 1.0000 -0.0052
vn 1.0000 0.0000 -0.0052
vn 0.0000 -1.0000 -0.0052
vn -0.0065 -0.9994 0.0349
vn 0.0043 -0.9997 -0.0231
vn 0.9992 0.0000 0.0404
vn 0.9996 0.0000 -0.0280
vn -0.0065 0.9994 0.0349
vn 0.0043 0.9997 -0.0231
vn -0.9991 0.0000 0.0426
vn -0.9996 0.0000 -0.0270
vn -1.0000 0.0000 0.0052
vn 0.0000 1.0000 0.0052
vn 1.0000 0.0000 0.0052
vn 0.0000 -1.0000 0.0052
vn -0.0065 -0.9994 -0.0349
vn 0.0043 -0.9997 0.0231
vn 0.9992 0.0000 -0.0404
vn 0.9996 0.0000 0.0280
vn -0.0065 0.9994 -0.0349
vn 0.0043 0.9997 0.0231
vn -0.9991 0.0000 -0.0426
vn -0.9996 0.0000 0.0270
s off
f 10/1/1 2/2/1 4/3/1 11/4/1
f 11/4/2 4/3/2 8/5/2 13/6/2
f 13/6/3 8/5/3 6/7/3 15/8/3
f 15/8/4 6/7/4 2/9/4 10/10/4
f 3/11/5 7/12/5 5/13/5 1/14/5
f 8/5/6 4/15/6 2/16/6 6/7/6
f 5/13/7 16/17/7 9/18/7 1/19/7
f 16/17/8 15/8/8 10/10/8 9/18/8
f 7/12/9 14/20/9 16/17/9 5/13/9
f 14/20/10 13/6/10 15/8/10 16/17/10
f 3/21/11 12/22/11 14/20/11 7/12/11
f 12/22/12 11/4/12 13/6/12 14/20/12
f 1/23/13 9/24/13 12/22/13 3/21/13
f 9/24/14 10/1/14 11/4/14 12/22/14
f 26/25/1 18/26/1 20/27/1 27/28/1
f 27/28/2 20/27/2 24/29/2 29/30/2
f 29/30/3 24/29/3 22/31/3 31/32/3
f 31/32/4 22/31/4 18/33/4 26/34/4
f 19/35/5 23/36/5 21/37/5 17/38/5
f 24/29/6 20/39/6 18/40/6 22/31/6
f 21/37/7 32/41/7 25/42/7 17/43/7
f 32/41/8 31/32/8 26/34/8 25/42/8
f 23/36/9 30/44/9 32/41/9 21/37/9
f 30/44/10 29/30/10 31/32/10 32/41/10
f 19/45/11 28/46/11 30/44/11 23/36/11
f 28/46/12 27/28/12 29/30/12 30/44/12
f 17/47/13 25/48/13 28/46/13 19/45/13
f 25/48/14 26/25/14 27/28/14 28/46/14
f 42/49/15 34/50/15 36/51/15 43/52/15
f 43/52/16 36/51/16 40/53/16 45/54/16
f 45/54/17 40/53/17 38/55/17 47/56/17
f 47/56/18 38/55/18 34/57/18 42/58/18
f 37/59/19 48/60/19 41/61/19 33/62/19
f 48/60/20 47/56/20 42/58/20 41/61/20
f 39/63/21 46/64/21 48/60/21 37/59/21
f 46/64/22 45/54/22 47/56/22 48/60/22
f 35/65/23 44/66/23 46/64/23 39/63/23
f 44/66/24 43/52/24 45/54/24 46/64/24
f 33/67/25 41/68/25 44/66/25 35/65/25
f 41/68/26 42/49/26 43/52/26 44/66/26
f 58/69/27 59/70/27 52/71/27 50/72/27
f 59/70/28 61/73/28 56/74/28 52/71/28
f 61/73/29 63/75/29 54/76/29 56/74/29
f 63/75/30 58/77/30 50/78/30 54/76/30
f 53/79/31 49/80/31 57/81/31 64/82/31
f 64/82/32 57/81/32 58/77/32 63/75/32
f 55/83/33 53/79/33 64/82/33 62/84/33
f 62/84/34 64/82/34 63/75/34 61/73/34
f 51/85/35 55/83/35 62/84/35 60/86/35
f 60/86/36 62/84/36 61/73/36 59/70/36
f 49/87/37 51/85/37 60/86/37 57/88/37
f 57/88/38 60/86/38 59/70/38 58/69/38
