# Blender 3.4.1
# www.blender.org
mtllib column.mtl
o Cube.006
v 0.194380 1.672861 0.194383
v -0.194387 1.672861 0.194383
v 0.194380 1.672861 -0.194383
v -0.194387 1.672861 -0.194383
v 0.331244 1.746670 0.331249
v -0.331255 1.746670 0.331249
v 0.331244 1.746670 -0.331249
v -0.331255 1.746670 -0.331249
v 0.331244 1.985201 0.331249
v -0.331255 1.985201 0.331249
v 0.331244 1.985201 -0.331249
v -0.331255 1.985201 -0.331249
v -0.194387 0.183096 -0.194383
v 0.194380 0.183096 -0.194383
v 0.194380 0.183096 0.194383
v -0.194387 0.183096 0.194383
v 0.328753 0.000000 0.328752
v -0.328753 0.000000 0.328752
v 0.328753 0.000000 -0.328752
v -0.328753 0.000000 -0.328752
v 0.328753 0.183096 -0.328752
v -0.328753 0.183096 0.328752
v -0.328753 0.183096 -0.328752
v 0.328753 0.183096 0.328752
vn -0.0000 -0.8802 -0.4747
vn -0.0000 -0.0000 -1.0000
vn -0.0000 -0.0000 1.0000
vn -1.0000 -0.0000 -0.0000
vn 1.0000 -0.0000 -0.0000
vn -0.0000 -0.8802 0.4747
vn -0.4747 -0.8802 -0.0000
vn 0.4747 -0.8802 -0.0000
vn -0.0000 1.0000 -0.0000
vt 0.060252 0.542811
vt 0.050218 0.542811
vt 0.060252 0.552846
vt 0.050218 0.552846
vt 0.060252 0.542811
vt 0.050218 0.542811
vt 0.060252 0.552846
vt 0.050218 0.552846
vt 0.060252 0.542811
vt 0.050218 0.542811
vt 0.060252 0.552846
vt 0.050218 0.552846
vt 0.050218 0.552846
vt 0.060252 0.552846
vt 0.060252 0.542811
vt 0.050218 0.542811
vt 0.060252 0.542811
vt 0.050218 0.542811
vt 0.060252 0.552846
vt 0.050218 0.552846
vt 0.060252 0.552846
vt 0.050218 0.542811
vt 0.050218 0.552846
vt 0.060252 0.542811
s 0
usemtl td_palette
f 3/3/1 4/4/1 8/8/1 7/7/1
f 14/14/2 13/13/2 4/4/2 3/3/2
f 16/16/3 15/15/3 1/1/3 2/2/3
f 13/13/4 16/16/4 2/2/4 4/4/4
f 15/15/5 14/14/5 3/3/5 1/1/5
f 7/7/2 8/8/2 12/12/2 11/11/2
f 2/2/6 1/1/6 5/5/6 6/6/6
f 4/4/7 2/2/7 6/6/7 8/8/7
f 1/1/8 3/3/8 7/7/8 5/5/8
f 9/9/9 11/11/9 12/12/9 10/10/9
f 6/6/3 5/5/3 9/9/3 10/10/3
f 8/8/4 6/6/4 10/10/4 12/12/4
f 5/5/5 7/7/5 11/11/5 9/9/5
f 13/13/9 14/14/9 21/21/9 23/23/9
f 14/14/9 15/15/9 24/24/9 21/21/9
f 15/15/9 16/16/9 22/22/9 24/24/9
f 17/17/5 19/19/5 21/21/5 24/24/5
f 20/20/4 18/18/4 22/22/4 23/23/4
f 18/18/3 17/17/3 24/24/3 22/22/3
f 19/19/2 20/20/2 23/23/2 21/21/2
f 16/16/9 13/13/9 23/23/9 22/22/9
