# Blender 3.4.1
# www.blender.org
mtllib fence_1.mtl
o Cube.004
v -1.389236 0.000000 0.188508
v -1.327665 0.101758 0.126938
v -1.389236 0.000000 -0.188508
v -1.327665 0.101758 -0.126938
v -1.012219 0.000000 0.188508
v -1.073789 0.101758 0.126938
v -1.012219 0.000000 -0.188508
v -1.073789 0.101758 -0.126938
v -1.389236 0.101758 0.188508
v -1.389236 0.101758 -0.188508
v -1.012219 0.101758 -0.188508
v -1.012219 0.101758 0.188508
v -1.327665 0.388727 0.126938
v -1.327665 0.388727 -0.126938
v -1.073789 0.388727 -0.126938
v -1.073789 0.388727 0.126938
v -1.057722 0.395535 0.143005
v -1.057722 0.395535 -0.143005
v -1.343732 0.395535 -0.143005
v -1.343732 0.395535 0.143005
v -1.028807 0.435232 0.171921
v -1.028807 0.435232 -0.171921
v -1.372648 0.435232 -0.171921
v -1.372648 0.435232 0.171921
v -1.012219 0.435232 0.188508
v -1.012219 0.435232 -0.188508
v -1.389235 0.435232 -0.188508
v -1.389235 0.435232 0.188508
v -1.012219 0.536990 0.188508
v -1.012219 0.536990 -0.188508
v -1.389235 0.536990 -0.188508
v -1.389235 0.536990 0.188508
v -1.389236 0.435232 0.188508
v -1.012219 0.435232 0.188508
v -1.389236 0.536990 0.188508
v -1.012219 0.536990 0.188508
v 1.389259 0.000000 0.188508
v 1.327688 0.101758 0.126938
v 1.389259 0.000000 -0.188508
v 1.327688 0.101758 -0.126938
v 1.012242 0.000000 0.188508
v 1.073812 0.101758 0.126938
v 1.012242 0.000000 -0.188508
v 1.073812 0.101758 -0.126938
v 1.389259 0.101758 0.188508
v 1.389259 0.101758 -0.188508
v 1.012242 0.101758 -0.188508
v 1.012242 0.101758 0.188508
v 1.327688 0.388727 0.126938
v 1.327688 0.388727 -0.126938
v 1.073812 0.388727 -0.126938
v 1.073812 0.388727 0.126938
v 1.057745 0.395535 0.143005
v 1.057745 0.395535 -0.143005
v 1.343755 0.395535 -0.143005
v 1.343755 0.395535 0.143005
v 1.028830 0.435232 0.171921
v 1.028830 0.435232 -0.171921
v 1.372671 0.435232 -0.171921
v 1.372671 0.435232 0.171921
v 1.012242 0.435232 0.188508
v 1.012242 0.435232 -0.188508
v 1.389258 0.435232 -0.188508
v 1.389258 0.435232 0.188508
v 1.012242 0.536990 0.188508
v 1.012242 0.536990 -0.188508
v 1.389258 0.536990 -0.188508
v 1.389258 0.536990 0.188508
v 1.389259 0.435232 0.188508
v 1.012242 0.435232 0.188508
v 1.389259 0.536990 0.188508
v 1.012242 0.536990 0.188508
vn -1.0000 -0.0000 -0.0000
vn -0.0000 -0.0000 -1.0000
vn -0.0000 1.0000 -0.0000
vn -0.0000 -0.0000 1.0000
vn 0.3902 -0.9207 -0.0000
vn -0.0000 -0.9207 -0.3902
vn -0.0000 -0.9207 0.3902
vn -0.3902 -0.9207 -0.0000
vn -0.0000 -0.5888 -0.8083
vn -0.0000 -0.5888 0.8083
vn -0.8083 -0.5888 -0.0000
vn 0.8083 -0.5888 -0.0000
vn -0.0000 -1.0000 -0.0000
vn 1.0000 -0.0000 -0.0000
vt 0.047370 0.589380
vt 0.082918 0.562880
vt 0.121304 0.527543
vt 0.074964 0.562880
vt 0.122943 0.564077
vt 0.047370 0.599414
vt 0.092896 0.525904
vt 0.114547 0.527543
vt 0.081721 0.562880
vt 0.090117 0.598217
vt 0.082918 0.552846
vt 0.121304 0.534300
vt 0.122943 0.570834
vt 0.067010 0.534300
vt 0.092896 0.535939
vt 0.114547 0.534300
vt 0.090117 0.591460
vt 0.073767 0.534300
vt 0.057292 0.589380
vt 0.092896 0.562880
vt 0.122943 0.525904
vt 0.057292 0.599414
vt 0.102874 0.525904
vt 0.112908 0.525904
vt 0.112908 0.535939
vt 0.102874 0.535939
vt 0.092896 0.552846
vt 0.122943 0.535939
vt 0.094805 0.564077
vt 0.074964 0.534900
vt 0.061979 0.598217
vt 0.081721 0.534900
vt 0.067010 0.562880
vt 0.060252 0.531579
vt 0.061979 0.591460
vt 0.060252 0.562880
vt 0.060252 0.524822
vt 0.094805 0.570834
vt 0.094092 0.571262
vt 0.059495 0.524394
vt 0.061266 0.591032
vt 0.059495 0.532007
vt 0.061266 0.598645
vt 0.082149 0.534172
vt 0.094092 0.563650
vt 0.074536 0.534172
vt 0.090117 0.572032
vt 0.055513 0.523625
vt 0.050659 0.553287
vt 0.057292 0.590263
vt 0.055513 0.532776
vt 0.050659 0.562439
vt 0.057292 0.599414
vt 0.082918 0.530187
vt 0.059811 0.562439
vt 0.090117 0.562880
vt 0.073767 0.530187
vt 0.059811 0.553287
vt 0.050218 0.552846
vt 0.047577 0.579345
vt 0.050218 0.562880
vt 0.047577 0.569311
vt 0.063789 0.534300
vt 0.060253 0.562880
vt 0.047370 0.589380
vt 0.063789 0.524266
vt 0.060253 0.552846
vt 0.047370 0.579345
vt 0.057292 0.579345
vt 0.060252 0.542811
vt 0.057292 0.569311
vt 0.073767 0.534300
vt 0.060252 0.552846
vt 0.057292 0.589380
vt 0.073767 0.524266
vt 0.050218 0.552846
vt 0.057292 0.579345
vt 0.050218 0.542811
vt 0.050275 0.542811
vt 0.050275 0.532776
vt 0.060253 0.542811
vt 0.060253 0.532776
vt 0.047370 0.589380
vt 0.082918 0.562880
vt 0.121304 0.527543
vt 0.074964 0.562880
vt 0.122943 0.564077
vt 0.047370 0.599414
vt 0.092896 0.525904
vt 0.114547 0.527543
vt 0.081721 0.562880
vt 0.090117 0.598217
vt 0.082918 0.552846
vt 0.067010 0.534300
vt 0.121304 0.534300
vt 0.122943 0.570834
vt 0.092896 0.535939
vt 0.073767 0.534300
vt 0.114547 0.534300
vt 0.090117 0.591460
vt 0.057292 0.589380
vt 0.092896 0.562880
vt 0.122943 0.525904
vt 0.057292 0.599414
vt 0.102874 0.525904
vt 0.112908 0.525904
vt 0.112908 0.535939
vt 0.102874 0.535939
vt 0.092896 0.552846
vt 0.122943 0.535939
vt 0.094805 0.564077
vt 0.074964 0.534900
vt 0.061979 0.598217
vt 0.081721 0.534900
vt 0.067010 0.562880
vt 0.060252 0.531579
vt 0.061979 0.591460
vt 0.060252 0.562880
vt 0.060252 0.524822
vt 0.094805 0.570834
vt 0.094092 0.571262
vt 0.059495 0.524394
vt 0.061266 0.591032
vt 0.059495 0.532007
vt 0.061266 0.598645
vt 0.082149 0.534172
vt 0.094092 0.563650
vt 0.074536 0.534172
vt 0.090117 0.572032
vt 0.055513 0.523625
vt 0.050659 0.553287
vt 0.057292 0.590263
vt 0.055513 0.532776
vt 0.050659 0.562439
vt 0.057292 0.599414
vt 0.082918 0.530187
vt 0.059811 0.562439
vt 0.090117 0.562880
vt 0.073767 0.530187
vt 0.059811 0.553287
vt 0.050218 0.552846
vt 0.047577 0.579345
vt 0.050218 0.562880
vt 0.047577 0.569311
vt 0.063789 0.534300
vt 0.060253 0.562880
vt 0.047370 0.589380
vt 0.063789 0.524266
vt 0.060253 0.552846
vt 0.047370 0.579345
vt 0.057292 0.579345
vt 0.060252 0.542811
vt 0.057292 0.569311
vt 0.073767 0.534300
vt 0.060252 0.552846
vt 0.057292 0.589380
vt 0.073767 0.524266
vt 0.050218 0.552846
vt 0.057292 0.579345
vt 0.050218 0.542811
vt 0.050275 0.542811
vt 0.050275 0.532776
vt 0.060253 0.542811
vt 0.060253 0.532776
s 0
usemtl td_palette
f 1/1/1 9/19/1 10/22/1 3/6/1
f 3/7/2 10/23/2 11/26/2 7/15/2
f 51/115/3 15/33/3 16/36/3 52/118/3
f 5/11/4 12/27/4 9/20/4 1/2/4
f 2/3/3 4/8/3 10/24/3 9/21/3
f 4/8/3 8/16/3 11/25/3 10/24/3
f 8/16/3 6/12/3 12/28/3 11/25/3
f 6/12/3 2/3/3 9/21/3 12/28/3
f 4/9/1 2/4/1 13/30/1 14/32/1
f 2/5/4 6/13/4 16/38/4 13/29/4
f 8/17/2 4/10/2 14/31/2 15/35/2
f 16/37/5 15/34/5 18/42/5 17/40/5
f 15/35/6 14/31/6 19/43/6 18/41/6
f 13/29/7 16/38/7 17/39/7 20/45/7
f 14/32/8 13/30/8 20/46/8 19/44/8
f 18/41/9 19/43/9 23/53/9 22/50/9
f 20/45/10 17/39/10 21/47/10 24/56/10
f 19/44/11 20/46/11 24/57/11 23/54/11
f 17/40/12 18/42/12 22/51/12 21/48/12
f 22/52/13 23/55/13 27/64/13 26/61/13
f 24/58/13 21/49/13 25/59/13 28/67/13
f 23/55/13 24/58/13 28/67/13 27/64/13
f 21/49/13 22/52/13 26/61/13 25/59/13
f 27/65/1 28/68/1 32/77/1 31/74/1
f 25/60/14 26/62/14 30/71/14 29/69/14
f 26/63/2 27/66/2 31/75/2 30/72/2
f 29/70/3 30/73/3 31/76/3 32/78/3
f 34/80/4 36/82/4 35/81/4 33/79/4
f 48/109/4 12/27/4 5/11/4 41/93/4
f 47/107/3 11/25/3 12/28/3 48/110/3
f 52/120/4 16/38/4 6/13/4 42/96/4
f 44/100/2 8/17/2 15/35/2 51/117/2
f 42/94/13 6/14/13 8/18/13 44/98/13
f 37/83/14 39/88/14 46/104/14 45/101/14
f 39/89/2 43/97/2 47/108/2 46/105/2
f 41/93/4 37/84/4 45/102/4 48/109/4
f 38/85/3 45/103/3 46/106/3 40/90/3
f 40/90/3 46/106/3 47/107/3 44/99/3
f 44/99/3 47/107/3 48/110/3 42/95/3
f 42/95/3 48/110/3 45/103/3 38/85/3
f 40/91/14 50/114/14 49/112/14 38/86/14
f 38/87/4 49/111/4 52/120/4 42/96/4
f 44/100/2 51/117/2 50/113/2 40/92/2
f 52/119/8 53/122/8 54/124/8 51/116/8
f 51/117/6 54/123/6 55/125/6 50/113/6
f 49/111/7 56/127/7 53/121/7 52/120/7
f 50/114/5 55/126/5 56/128/5 49/112/5
f 54/123/9 58/132/9 59/135/9 55/125/9
f 56/127/10 60/138/10 57/129/10 53/121/10
f 55/126/12 59/136/12 60/139/12 56/128/12
f 53/122/11 57/130/11 58/133/11 54/124/11
f 58/134/13 62/143/13 63/146/13 59/137/13
f 60/140/13 64/149/13 61/141/13 57/131/13
f 59/137/13 63/146/13 64/149/13 60/140/13
f 57/131/13 61/141/13 62/143/13 58/134/13
f 63/147/14 67/156/14 68/159/14 64/150/14
f 61/142/1 65/151/1 66/153/1 62/144/1
f 62/145/2 66/154/2 67/157/2 63/148/2
f 65/152/3 68/160/3 67/158/3 66/155/3
f 70/162/4 69/161/4 71/163/4 72/164/4
f 43/97/2 7/15/2 11/26/2 47/108/2
