# Blender v3.1.2 OBJ File: 'nexus_fa.blend'
# www.blender.org
o Icosphere.007_Icosphere.027
v -0.015491 0.000000 0.738646
v -1.015487 0.000000 1.063570
v -1.633525 0.000000 0.212921
v -1.015487 0.000000 -0.637728
v -0.015491 0.000000 -0.312804
v -0.462711 0.783341 1.063570
v -1.462706 0.783341 0.738646
v -1.462706 0.783341 -0.312804
v -0.462711 0.783341 -0.637728
v 0.155327 0.783337 0.212921
v -0.739099 1.336122 0.212921
v -0.476230 0.000000 1.021933
v 0.111549 0.000000 0.212921
v -1.427288 0.000000 0.712918
v -1.427288 0.000000 -0.287076
v -0.476230 0.000000 -0.596091
v 0.211959 0.336122 0.521934
v 0.211959 0.336122 -0.096092
v -0.739099 0.336122 1.212921
v -0.151313 0.336122 1.021938
v -1.690157 0.336122 0.521934
v -1.326884 0.336122 1.021938
v -1.326884 0.336122 -0.596096
v -1.690157 0.336122 -0.096092
v -0.151313 0.336122 -0.596096
v -0.739099 0.336122 -0.787079
v -0.050909 0.861858 0.712918
v -1.001968 0.861859 1.021933
v -1.589747 0.861857 0.212921
v -1.001968 0.861859 -0.596091
v -0.050909 0.861858 -0.287076
v -0.576643 1.186776 0.712916
v -0.213369 1.186773 0.212921
v -1.164421 1.186776 0.521932
v -1.164421 1.186776 -0.096090
v -0.576643 1.186776 -0.287074
v 0.791494 0.000000 0.795658
v 0.106440 0.000000 0.573080
v 0.106431 0.000000 -0.147228
v 0.791484 0.000000 -0.369819
v 1.214871 0.000000 0.212919
v 0.412801 0.536631 0.795661
v -0.010586 0.536630 0.212923
v 0.412791 0.536630 -0.369815
v 1.097845 0.536631 -0.147238
v 1.097854 0.536628 0.573070
v 0.602142 0.915314 0.212921
v 0.422074 0.000000 0.767141
v 1.073591 0.000000 0.555442
v 0.019403 0.000000 0.212925
v 0.422060 0.000000 -0.341295
v 1.073587 0.000000 -0.129605
v 1.004814 0.230261 0.767136
v 1.253668 0.230261 0.424612
v 0.199483 0.230261 0.767144
v 0.602149 0.230261 0.897974
v -0.049383 0.230261 0.001231
v -0.049380 0.230261 0.424620
v 0.602136 0.230261 -0.472132
v 0.199471 0.230261 -0.341293
v 1.253665 0.230261 0.001223
v 1.004802 0.230261 -0.341302
v 0.782224 0.590419 0.767137
v 0.130698 0.590419 0.555448
v 0.130693 0.590418 -0.129600
v 0.782211 0.590419 -0.341299
v 1.184881 0.590419 0.212917
v 0.490851 0.813005 0.555444
v 0.893514 0.813003 0.424611
v 0.241992 0.813005 0.212922
v 0.490845 0.813005 -0.129600
v 0.893507 0.813005 0.001226
v 0.279089 0.000000 0.011588
v -0.235147 0.000000 -0.155490
v -0.235154 0.000000 -0.696189
v 0.279081 0.000000 -0.863277
v 0.596896 0.000000 -0.425845
v -0.005177 0.402822 0.011590
v -0.322992 0.402821 -0.425842
v -0.005185 0.402821 -0.863274
v 0.509051 0.402822 -0.696197
v 0.509058 0.402819 -0.155498
v 0.136952 0.687080 -0.425843
v 0.001784 0.000000 -0.009819
v 0.490845 0.000000 -0.168730
v -0.300481 0.000000 -0.425840
v 0.001774 0.000000 -0.841865
v 0.490842 0.000000 -0.682961
v 0.439218 0.172845 -0.009823
v 0.626019 0.172845 -0.266938
v -0.165304 0.172845 -0.009816
v 0.136957 0.172845 0.088392
v -0.352115 0.172845 -0.584749
v -0.352113 0.172845 -0.266932
v 0.136948 0.172845 -0.940078
v -0.165313 0.172845 -0.841864
v 0.626018 0.172845 -0.584755
v 0.439208 0.172845 -0.841871
v 0.272131 0.443197 -0.009821
v -0.216937 0.443198 -0.168726
v -0.216941 0.443197 -0.682957
v 0.272120 0.443198 -0.841868
v 0.574385 0.443197 -0.425846
v 0.053412 0.610282 -0.168728
v 0.355670 0.610280 -0.266938
v -0.133394 0.610282 -0.425843
v 0.053407 0.610282 -0.682957
v 0.355665 0.610282 -0.584752
vt 0.724508 0.780581
vt 0.734987 0.783986
vt 0.728096 0.787090
vt 0.707461 0.792604
vt 0.713938 0.783690
vt 0.714760 0.791203
vt 0.713628 0.812532
vt 0.707152 0.803618
vt 0.714551 0.805157
vt 0.734486 0.812825
vt 0.724007 0.816230
vt 0.727758 0.809669
vt 0.741210 0.793078
vt 0.741210 0.804096
vt 0.736129 0.798502
vt 0.720739 0.786986
vt 0.712388 0.798168
vt 0.720443 0.809566
vt 0.733771 0.805427
vt 0.733954 0.791472
vt 0.720127 0.792466
vt 0.724350 0.791842
vt 0.722371 0.795647
vt 0.717411 0.800443
vt 0.718123 0.796234
vt 0.721130 0.799292
vt 0.724158 0.805492
vt 0.720375 0.803514
vt 0.724213 0.801599
vt 0.731045 0.800635
vt 0.727995 0.803621
vt 0.727360 0.799380
vt 0.728554 0.792584
vt 0.730451 0.796408
vt 0.726221 0.795701
vt 0.724259 0.798324
vt 0.690429 0.816250
vt 0.700908 0.819655
vt 0.694017 0.822759
vt 0.673382 0.828273
vt 0.679859 0.819359
vt 0.680681 0.826872
vt 0.679549 0.848201
vt 0.673073 0.839287
vt 0.680471 0.840827
vt 0.700407 0.848494
vt 0.689928 0.851899
vt 0.693678 0.845338
vt 0.707131 0.828747
vt 0.707131 0.839766
vt 0.702050 0.834171
vt 0.686659 0.822655
vt 0.678309 0.833838
vt 0.686363 0.845235
vt 0.699692 0.841097
vt 0.699875 0.827142
vt 0.686048 0.828135
vt 0.690271 0.827512
vt 0.688292 0.831316
vt 0.683331 0.836112
vt 0.684043 0.831904
vt 0.687050 0.834962
vt 0.690079 0.841161
vt 0.686296 0.839183
vt 0.690134 0.837268
vt 0.696966 0.836304
vt 0.693916 0.839290
vt 0.693280 0.835049
vt 0.694474 0.828253
vt 0.696372 0.832077
vt 0.692142 0.831371
vt 0.690180 0.833993
vt 0.690429 0.780581
vt 0.700908 0.783986
vt 0.694017 0.787090
vt 0.673382 0.792604
vt 0.679859 0.783690
vt 0.680681 0.791203
vt 0.679549 0.812532
vt 0.673073 0.803618
vt 0.680471 0.805157
vt 0.700407 0.812825
vt 0.689928 0.816230
vt 0.693678 0.809669
vt 0.707131 0.793078
vt 0.707131 0.804096
vt 0.702050 0.798502
vt 0.686659 0.786986
vt 0.678309 0.798168
vt 0.686363 0.809566
vt 0.699692 0.805427
vt 0.699875 0.791472
vt 0.686048 0.792466
vt 0.690271 0.791842
vt 0.688292 0.795647
vt 0.683331 0.800443
vt 0.684043 0.796234
vt 0.687050 0.799292
vt 0.690079 0.805492
vt 0.686296 0.803514
vt 0.690134 0.801599
vt 0.696966 0.800635
vt 0.693916 0.803621
vt 0.693280 0.799380
vt 0.694474 0.792584
vt 0.696372 0.796408
vt 0.692142 0.795701
vt 0.690180 0.798324
vn 0.8672 -0.4517 0.2096
vn 0.0687 -0.4517 0.8895
vn -0.8248 -0.4517 0.3402
vn -0.5784 -0.4517 -0.6793
vn 0.4673 -0.4517 -0.7600
vn 0.7978 -0.1661 0.5796
vn -0.3047 -0.1661 0.9378
vn -0.9861 -0.1661 0.0000
vn -0.3047 -0.1661 -0.9378
vn 0.7978 -0.1661 -0.5796
vn 0.4089 0.6617 0.6284
vn -0.4713 0.6617 0.5831
vn -0.7002 0.6617 -0.2680
vn 0.0385 0.6617 -0.7488
vn 0.7240 0.6617 -0.1947
vn 0.2680 0.9435 -0.1947
vn 0.4911 0.7947 -0.3568
vn 0.4089 0.6617 -0.6284
vn -0.1024 0.9435 -0.3151
vn -0.1876 0.7947 -0.5773
vn -0.4713 0.6617 -0.5831
vn -0.3313 0.9435 0.0000
vn -0.6071 0.7947 0.0000
vn -0.7002 0.6617 0.2680
vn -0.1024 0.9435 0.3151
vn -0.1876 0.7947 0.5773
vn 0.0385 0.6617 0.7488
vn 0.2680 0.9435 0.1947
vn 0.4911 0.7947 0.3568
vn 0.7240 0.6617 0.1947
vn 0.8897 0.3304 -0.3151
vn 0.7947 0.1876 -0.5773
vn 0.5746 0.3304 -0.7488
vn -0.0247 0.3304 -0.9435
vn -0.3035 0.1876 -0.9342
vn -0.5346 0.3304 -0.7779
vn -0.9050 0.3304 -0.2680
vn -0.9822 0.1876 0.0000
vn -0.9050 0.3304 0.2680
vn -0.5346 0.3304 0.7779
vn -0.3035 0.1876 0.9342
vn -0.0247 0.3304 0.9435
vn 0.5746 0.3304 0.7488
vn 0.7947 0.1876 0.5773
vn 0.8897 0.3304 0.3151
vn 0.3066 0.1256 -0.9435
vn 0.2961 -0.2862 -0.9113
vn 0.0687 -0.4517 -0.8895
vn -0.8026 0.1256 -0.5831
vn -0.7752 -0.2862 -0.5632
vn -0.8248 -0.4517 -0.3402
vn -0.8026 0.1256 0.5831
vn -0.7752 -0.2862 0.5632
vn -0.5784 -0.4517 0.6793
vn 0.3066 0.1256 0.9435
vn 0.2961 -0.2862 0.9113
vn 0.4673 -0.4517 0.7600
vn 0.9921 0.1256 0.0000
vn 0.9582 -0.2862 0.0000
vn 0.8672 -0.4517 -0.2096
vn 0.5784 -0.4517 0.6793
vn -0.4673 -0.4517 0.7600
vn -0.8672 -0.4517 -0.2096
vn -0.0687 -0.4517 -0.8895
vn 0.8248 -0.4517 -0.3402
vn 0.3047 -0.1661 0.9378
vn -0.7978 -0.1661 0.5796
vn -0.7978 -0.1661 -0.5796
vn 0.3047 -0.1661 -0.9378
vn 0.9861 -0.1661 -0.0000
vn -0.0385 0.6617 0.7488
vn -0.7240 0.6617 0.1947
vn -0.4090 0.6617 -0.6284
vn 0.4713 0.6617 -0.5831
vn 0.7002 0.6617 0.2680
vn 0.3313 0.9435 -0.0000
vn 0.6071 0.7947 -0.0000
vn 0.7002 0.6617 -0.2680
vn 0.1024 0.9435 -0.3151
vn 0.1876 0.7947 -0.5773
vn -0.0385 0.6617 -0.7488
vn -0.2680 0.9435 -0.1947
vn -0.4911 0.7947 -0.3568
vn -0.7240 0.6617 -0.1947
vn -0.2680 0.9435 0.1947
vn -0.4911 0.7947 0.3568
vn -0.4089 0.6617 0.6284
vn 0.1024 0.9435 0.3151
vn 0.1876 0.7947 0.5773
vn 0.4713 0.6617 0.5831
vn 0.9050 0.3304 0.2680
vn 0.9822 0.1876 -0.0000
vn 0.9050 0.3304 -0.2680
vn 0.5346 0.3304 -0.7779
vn 0.3035 0.1876 -0.9342
vn 0.0247 0.3304 -0.9435
vn -0.5746 0.3304 -0.7488
vn -0.7947 0.1876 -0.5773
vn -0.8897 0.3304 -0.3151
vn -0.8897 0.3304 0.3151
vn -0.7946 0.1876 0.5774
vn -0.5746 0.3304 0.7488
vn 0.0247 0.3304 0.9435
vn 0.3035 0.1876 0.9342
vn 0.5346 0.3304 0.7779
vn 0.8026 0.1256 -0.5831
vn 0.7752 -0.2862 -0.5632
vn 0.5784 -0.4517 -0.6793
vn -0.3066 0.1256 -0.9435
vn -0.2961 -0.2862 -0.9113
vn -0.4673 -0.4517 -0.7600
vn -0.9921 0.1256 0.0000
vn -0.9582 -0.2862 0.0000
vn -0.8672 -0.4517 0.2096
vn -0.3066 0.1256 0.9435
vn -0.2961 -0.2862 0.9113
vn -0.0687 -0.4517 0.8895
vn 0.8026 0.1256 0.5831
vn 0.7752 -0.2862 0.5632
vn 0.8248 -0.4517 0.3402
s off
f 1/1/1 13/2/1 17/3/1
f 2/4/2 12/5/2 19/6/2
f 3/7/3 14/8/3 21/9/3
f 4/10/4 15/11/4 23/12/4
f 5/13/5 16/14/5 25/15/5
f 1/1/6 17/3/6 20/16/6
f 2/4/7 19/6/7 22/17/7
f 3/7/8 21/9/8 24/18/8
f 4/10/9 23/12/9 26/19/9
f 5/13/10 25/15/10 18/20/10
f 6/21/11 27/22/11 32/23/11
f 7/24/12 28/25/12 34/26/12
f 8/27/13 29/28/13 35/29/13
f 9/30/14 30/31/14 36/32/14
f 10/33/15 31/34/15 33/35/15
f 33/35/16 36/32/16 11/36/16
f 33/35/17 31/34/17 36/32/17
f 31/34/18 9/30/18 36/32/18
f 36/32/19 35/29/19 11/36/19
f 36/32/20 30/31/20 35/29/20
f 30/31/21 8/27/21 35/29/21
f 35/29/22 34/26/22 11/36/22
f 35/29/23 29/28/23 34/26/23
f 29/28/24 7/24/24 34/26/24
f 34/26/25 32/23/25 11/36/25
f 34/26/26 28/25/26 32/23/26
f 28/25/27 6/21/27 32/23/27
f 32/23/28 33/35/28 11/36/28
f 32/23/29 27/22/29 33/35/29
f 27/22/30 10/33/30 33/35/30
f 18/20/31 31/34/31 10/33/31
f 18/20/32 25/15/32 31/34/32
f 25/15/33 9/30/33 31/34/33
f 26/19/34 30/31/34 9/30/34
f 26/19/35 23/12/35 30/31/35
f 23/12/36 8/27/36 30/31/36
f 24/18/37 29/28/37 8/27/37
f 24/18/38 21/9/38 29/28/38
f 21/9/39 7/24/39 29/28/39
f 22/17/40 28/25/40 7/24/40
f 22/17/41 19/6/41 28/25/41
f 19/6/42 6/21/42 28/25/42
f 20/16/43 27/22/43 6/21/43
f 20/16/44 17/3/44 27/22/44
f 17/3/45 10/33/45 27/22/45
f 25/15/46 26/19/46 9/30/46
f 25/15/47 16/14/47 26/19/47
f 16/14/48 4/10/48 26/19/48
f 23/12/49 24/18/49 8/27/49
f 23/12/50 15/11/50 24/18/50
f 15/11/51 3/7/51 24/18/51
f 21/9/52 22/17/52 7/24/52
f 21/9/53 14/8/53 22/17/53
f 14/8/54 2/4/54 22/17/54
f 19/6/55 20/16/55 6/21/55
f 19/6/56 12/5/56 20/16/56
f 12/5/57 1/1/57 20/16/57
f 17/3/58 18/20/58 10/33/58
f 17/3/59 13/2/59 18/20/59
f 13/2/60 5/13/60 18/20/60
f 37/37/61 49/38/61 53/39/61
f 38/40/62 48/41/62 55/42/62
f 39/43/63 50/44/63 57/45/63
f 40/46/64 51/47/64 59/48/64
f 41/49/65 52/50/65 61/51/65
f 37/37/66 53/39/66 56/52/66
f 38/40/67 55/42/67 58/53/67
f 39/43/68 57/45/68 60/54/68
f 40/46/69 59/48/69 62/55/69
f 41/49/70 61/51/70 54/56/70
f 42/57/71 63/58/71 68/59/71
f 43/60/72 64/61/72 70/62/72
f 44/63/73 65/64/73 71/65/73
f 45/66/74 66/67/74 72/68/74
f 46/69/75 67/70/75 69/71/75
f 69/71/76 72/68/76 47/72/76
f 69/71/77 67/70/77 72/68/77
f 67/70/78 45/66/78 72/68/78
f 72/68/79 71/65/79 47/72/79
f 72/68/80 66/67/80 71/65/80
f 66/67/81 44/63/81 71/65/81
f 71/65/82 70/62/82 47/72/82
f 71/65/83 65/64/83 70/62/83
f 65/64/84 43/60/84 70/62/84
f 70/62/85 68/59/85 47/72/85
f 70/62/86 64/61/86 68/59/86
f 64/61/87 42/57/87 68/59/87
f 68/59/88 69/71/88 47/72/88
f 68/59/89 63/58/89 69/71/89
f 63/58/90 46/69/90 69/71/90
f 54/56/91 67/70/91 46/69/91
f 54/56/92 61/51/92 67/70/92
f 61/51/93 45/66/93 67/70/93
f 62/55/94 66/67/94 45/66/94
f 62/55/95 59/48/95 66/67/95
f 59/48/96 44/63/96 66/67/96
f 60/54/97 65/64/97 44/63/97
f 60/54/98 57/45/98 65/64/98
f 57/45/99 43/60/99 65/64/99
f 58/53/100 64/61/100 43/60/100
f 58/53/101 55/42/101 64/61/101
f 55/42/102 42/57/102 64/61/102
f 56/52/103 63/58/103 42/57/103
f 56/52/104 53/39/104 63/58/104
f 53/39/105 46/69/105 63/58/105
f 61/51/106 62/55/106 45/66/106
f 61/51/107 52/50/107 62/55/107
f 52/50/108 40/46/108 62/55/108
f 59/48/109 60/54/109 44/63/109
f 59/48/110 51/47/110 60/54/110
f 51/47/111 39/43/111 60/54/111
f 57/45/112 58/53/112 43/60/112
f 57/45/113 50/44/113 58/53/113
f 50/44/114 38/40/114 58/53/114
f 55/42/115 56/52/115 42/57/115
f 55/42/116 48/41/116 56/52/116
f 48/41/117 37/37/117 56/52/117
f 53/39/118 54/56/118 46/69/118
f 53/39/119 49/38/119 54/56/119
f 49/38/120 41/49/120 54/56/120
f 73/73/61 85/74/61 89/75/61
f 74/76/62 84/77/62 91/78/62
f 75/79/63 86/80/63 93/81/63
f 76/82/64 87/83/64 95/84/64
f 77/85/65 88/86/65 97/87/65
f 73/73/66 89/75/66 92/88/66
f 74/76/67 91/78/67 94/89/67
f 75/79/68 93/81/68 96/90/68
f 76/82/69 95/84/69 98/91/69
f 77/85/70 97/87/70 90/92/70
f 78/93/71 99/94/71 104/95/71
f 79/96/72 100/97/72 106/98/72
f 80/99/73 101/100/73 107/101/73
f 81/102/74 102/103/74 108/104/74
f 82/105/75 103/106/75 105/107/75
f 105/107/76 108/104/76 83/108/76
f 105/107/77 103/106/77 108/104/77
f 103/106/78 81/102/78 108/104/78
f 108/104/79 107/101/79 83/108/79
f 108/104/80 102/103/80 107/101/80
f 102/103/81 80/99/81 107/101/81
f 107/101/82 106/98/82 83/108/82
f 107/101/83 101/100/83 106/98/83
f 101/100/84 79/96/84 106/98/84
f 106/98/85 104/95/85 83/108/85
f 106/98/86 100/97/86 104/95/86
f 100/97/87 78/93/87 104/95/87
f 104/95/88 105/107/88 83/108/88
f 104/95/89 99/94/89 105/107/89
f 99/94/90 82/105/90 105/107/90
f 90/92/91 103/106/91 82/105/91
f 90/92/92 97/87/92 103/106/92
f 97/87/93 81/102/93 103/106/93
f 98/91/94 102/103/94 81/102/94
f 98/91/95 95/84/95 102/103/95
f 95/84/96 80/99/96 102/103/96
f 96/90/97 101/100/97 80/99/97
f 96/90/98 93/81/98 101/100/98
f 93/81/99 79/96/99 101/100/99
f 94/89/100 100/97/100 79/96/100
f 94/89/101 91/78/101 100/97/101
f 91/78/102 78/93/102 100/97/102
f 92/88/103 99/94/103 78/93/103
f 92/88/104 89/75/104 99/94/104
f 89/75/105 82/105/105 99/94/105
f 97/87/106 98/91/106 81/102/106
f 97/87/107 88/86/107 98/91/107
f 88/86/108 76/82/108 98/91/108
f 95/84/109 96/90/109 80/99/109
f 95/84/110 87/83/110 96/90/110
f 87/83/111 75/79/111 96/90/111
f 93/81/112 94/89/112 79/96/112
f 93/81/113 86/80/113 94/89/113
f 86/80/114 74/76/114 94/89/114
f 91/78/115 92/88/115 78/93/115
f 91/78/116 84/77/116 92/88/116
f 84/77/117 73/73/117 92/88/117
f 89/75/118 90/92/118 82/105/118
f 89/75/119 85/74/119 90/92/119
f 85/74/120 77/85/120 90/92/120
