# Blender v3.1.2 OBJ File: 'nexus_fa.blend'
# www.blender.org
o Cylinder.004_Cylinder.029
v -0.003995 0.528926 -1.733145
v -0.005771 0.533254 1.643187
v 0.164128 0.472218 -1.719071
v 0.171506 0.425082 1.663957
v 0.267477 0.267536 -1.710397
v 0.238429 0.293321 1.656052
v 0.189800 0.097916 -1.697803
v 0.160877 0.125815 1.706514
v -0.004623 0.032390 -1.755337
v 0.000313 0.058261 1.720987
v -0.185079 0.127882 -1.722358
v -0.160156 0.129095 1.713246
v -0.251471 0.278856 -1.726824
v -0.227023 0.289130 1.682959
v -0.173777 0.447068 -1.717783
v -0.159833 0.457130 1.690776
v -0.001305 0.598297 -0.638458
v 0.201255 0.497973 -0.665214
v 0.313234 0.275023 -0.668572
v 0.224499 0.081885 -0.663604
v -0.008852 -0.030003 -0.665182
v -0.193070 0.061704 -0.624022
v -0.297417 0.277241 -0.674357
v -0.219347 0.494876 -0.642180
v -0.019439 0.608606 1.284841
v 0.218251 0.499784 1.298948
v 0.305296 0.281926 1.334479
v 0.233500 0.074098 1.346167
v 0.002966 -0.021770 1.370151
v -0.228116 0.071996 1.376358
v -0.306092 0.282899 1.336977
v -0.205441 0.511292 1.310391
v 0.201422 0.493181 1.684675
v -0.015439 0.569769 1.622446
v 0.302025 0.290165 1.697191
v 0.208788 0.064701 1.706414
v -0.001867 -0.010120 1.734259
v -0.196829 0.076864 1.725633
v -0.298728 0.296383 1.696410
v -0.211610 0.496851 1.651536
v 0.141233 0.421460 1.555900
v -0.000572 0.504755 1.571209
v 0.214112 0.292928 1.640201
v 0.138883 0.110357 1.621925
v -0.018188 0.070748 1.617134
v -0.167653 0.126475 1.607849
v -0.208391 0.272898 1.606153
v -0.146954 0.445330 1.555579
v -0.188288 0.446338 0.098349
v -0.285190 0.260588 0.110110
v -0.198523 0.086712 0.128236
v 0.003448 -0.012682 0.111487
v 0.176559 0.084565 0.166423
v 0.248046 0.261033 0.129463
v 0.187574 0.420574 0.113610
v 0.001566 0.542828 0.074995
v -0.000957 0.631098 -1.728040
v 0.259681 0.519843 -1.731944
v 0.348593 0.278828 -1.727468
v 0.250092 0.042928 -1.703638
v 0.000510 -0.052562 -1.712382
v -0.263121 0.025096 -1.763934
v -0.363229 0.279322 -1.721850
v -0.255204 0.523746 -1.695602
v -0.020077 0.540983 -1.624875
v 0.191192 0.447578 -1.609993
v 0.250688 0.273794 -1.610699
v 0.168770 0.085999 -1.606802
v -0.004563 0.017058 -1.629370
v -0.191955 0.084331 -1.613146
v -0.263899 0.267917 -1.598080
v -0.178763 0.473790 -1.579601
v -0.211597 0.465469 0.706004
v -0.287440 0.281280 0.726426
v -0.191921 0.072805 0.740232
v 0.001683 -0.035419 0.764911
v 0.216486 0.068826 0.755041
v 0.293685 0.259667 0.695057
v 0.213839 0.481338 0.702372
v -0.002604 0.542055 0.689196
v 0.169725 0.577928 0.162401
v 0.038065 0.399498 0.209326
v 0.129375 0.600496 0.152216
v -0.030401 0.445422 0.156668
v 0.098037 0.620067 0.087791
v -0.049143 0.471546 0.098473
v 0.113958 0.603320 0.042534
v -0.026252 0.444517 0.019458
v 0.172789 0.583879 0.026563
v 0.032769 0.397887 -0.012111
v 0.207209 0.544927 0.058124
v 0.092065 0.352405 0.023247
v 0.219254 0.535393 0.092605
v 0.119584 0.337490 0.097823
v 0.200819 0.546982 0.137474
v 0.087473 0.348497 0.173970
v 0.161850 0.572285 0.205776
v 0.114211 0.618379 0.169619
v 0.078723 0.645680 0.090950
v 0.102402 0.626024 0.030007
v 0.170950 0.576663 -0.013988
v 0.209093 0.532777 0.018882
v 0.249563 0.524134 0.091955
v 0.223207 0.527580 0.167645
v 0.147227 0.536755 0.176113
v 0.098623 0.574597 0.146614
v 0.084271 0.584509 0.094647
v 0.094827 0.581913 0.048670
v 0.139700 0.546992 0.024819
v 0.182790 0.505235 0.048115
v 0.195592 0.500812 0.097229
v 0.172110 0.513778 0.152236
vt 0.596444 0.467662
vt 0.596444 0.469479
vt 0.588433 0.469479
vt 0.588433 0.467662
vt 0.580423 0.469479
vt 0.580423 0.467662
vt 0.572413 0.469479
vt 0.572413 0.467662
vt 0.564403 0.469479
vt 0.564403 0.467662
vt 0.556393 0.469479
vt 0.556393 0.467662
vt 0.548382 0.469479
vt 0.548382 0.467662
vt 0.548382 0.409972
vt 0.556476 0.413324
vt 0.556476 0.413324
vt 0.548382 0.409972
vt 0.540372 0.469479
vt 0.540372 0.467662
vt 0.532362 0.469479
vt 0.532362 0.467662
vt 0.580423 0.432588
vt 0.588322 0.429316
vt 0.588322 0.429316
vt 0.580423 0.432588
vt 0.540372 0.437438
vt 0.540372 0.448749
vt 0.532362 0.448749
vt 0.532362 0.437438
vt 0.548382 0.437438
vt 0.548382 0.448749
vt 0.556393 0.437438
vt 0.556393 0.448749
vt 0.564403 0.437438
vt 0.564403 0.448749
vt 0.572413 0.437438
vt 0.572413 0.448749
vt 0.580423 0.437438
vt 0.580423 0.448749
vt 0.588433 0.437438
vt 0.588433 0.448749
vt 0.596444 0.437438
vt 0.596444 0.448749
vt 0.596444 0.457073
vt 0.588433 0.457073
vt 0.540372 0.462368
vt 0.532362 0.462368
vt 0.548382 0.462368
vt 0.556393 0.462368
vt 0.564403 0.462368
vt 0.572413 0.462368
vt 0.580423 0.462368
vt 0.588433 0.462368
vt 0.548382 0.432863
vt 0.556476 0.429511
vt 0.559257 0.432293
vt 0.548382 0.436797
vt 0.559828 0.421418
vt 0.563762 0.421418
vt 0.559257 0.410543
vt 0.548382 0.406038
vt 0.540289 0.413324
vt 0.537507 0.410543
vt 0.536937 0.421418
vt 0.533003 0.421418
vt 0.540289 0.429511
vt 0.537507 0.432293
vt 0.559744 0.548429
vt 0.551651 0.551781
vt 0.543558 0.548429
vt 0.540205 0.540335
vt 0.543558 0.532242
vt 0.551651 0.528890
vt 0.559744 0.532242
vt 0.563097 0.540335
vt 0.556476 0.429511
vt 0.559828 0.421418
vt 0.536937 0.421418
vt 0.540289 0.429511
vt 0.540289 0.413324
vt 0.548382 0.432863
vt 0.540372 0.457073
vt 0.532362 0.457073
vt 0.548382 0.457073
vt 0.556393 0.457073
vt 0.564403 0.457073
vt 0.572413 0.457073
vt 0.580423 0.457073
vt 0.596444 0.462368
vt 0.580423 0.436797
vt 0.591298 0.432293
vt 0.591593 0.421418
vt 0.595803 0.421418
vt 0.588322 0.413519
vt 0.591298 0.410543
vt 0.580423 0.410248
vt 0.580423 0.406038
vt 0.572525 0.413519
vt 0.569548 0.410543
vt 0.569253 0.421418
vt 0.565044 0.421418
vt 0.572525 0.429316
vt 0.569548 0.432293
vt 0.583692 0.551505
vt 0.591590 0.548234
vt 0.594862 0.540335
vt 0.591590 0.532437
vt 0.583692 0.529165
vt 0.575794 0.532437
vt 0.572522 0.540335
vt 0.575794 0.548234
vt 0.572525 0.429316
vt 0.569253 0.421418
vt 0.572525 0.413519
vt 0.580423 0.410248
vt 0.588322 0.413519
vt 0.591593 0.421418
vt 0.596444 0.437438
vt 0.588433 0.437438
vt 0.588433 0.469479
vt 0.596444 0.469479
vt 0.580423 0.437438
vt 0.580423 0.469479
vt 0.572413 0.437438
vt 0.572413 0.469479
vt 0.564403 0.437438
vt 0.564403 0.469479
vt 0.556393 0.437438
vt 0.556393 0.469479
vt 0.548382 0.437438
vt 0.548382 0.469479
vt 0.540372 0.437438
vt 0.540372 0.469479
vt 0.532362 0.437438
vt 0.532362 0.469479
vt 0.580423 0.432094
vt 0.580423 0.432094
vt 0.587972 0.428967
vt 0.587972 0.428967
vt 0.591298 0.432293
vt 0.580423 0.436797
vt 0.591099 0.421418
vt 0.595803 0.421418
vt 0.587972 0.413869
vt 0.591298 0.410543
vt 0.580423 0.410742
vt 0.580423 0.406038
vt 0.572874 0.413869
vt 0.569548 0.410543
vt 0.569747 0.421418
vt 0.565044 0.421418
vt 0.572874 0.428967
vt 0.569548 0.432293
vt 0.583692 0.586693
vt 0.576143 0.583566
vt 0.573016 0.576017
vt 0.576143 0.568468
vt 0.583692 0.565341
vt 0.591241 0.568468
vt 0.594368 0.576017
vt 0.591241 0.583566
vt 0.572874 0.428967
vt 0.572874 0.413869
vt 0.569747 0.421418
vt 0.587972 0.413869
vt 0.580423 0.410742
vt 0.591099 0.421418
vn 0.3675 0.9277 0.0648
vn 0.9121 0.4093 0.0236
vn 0.9345 -0.3542 0.0356
vn 0.3626 -0.9318 0.0177
vn -0.3905 -0.9199 0.0358
vn -0.9244 -0.3767 0.0602
vn -0.3178 0.9467 0.0534
vn -0.9159 0.4014 0.0021
vn -0.3974 0.9149 0.0705
vn -0.3653 -0.9302 -0.0354
vn -0.4056 0.9134 0.0330
vn -0.9286 0.3676 0.0504
vn -0.9155 -0.3973 0.0631
vn -0.3542 -0.9345 0.0351
vn 0.3937 -0.9186 0.0337
vn 0.9168 -0.3979 0.0333
vn 0.9167 0.3970 0.0452
vn 0.4171 0.9082 0.0344
vn 0.4936 0.8660 0.0807
vn -0.4093 0.9081 -0.0887
vn -0.9201 0.3908 -0.0247
vn -0.9215 -0.3863 -0.0403
vn -0.4294 -0.9031 -0.0027
vn 0.4104 -0.9119 0.0081
vn 0.9358 -0.3522 -0.0139
vn 0.9351 0.3535 -0.0238
vn -0.1893 0.0369 0.9812
vn -0.4362 -0.2062 0.8759
vn -0.2127 0.2364 0.9481
vn 0.0654 0.1238 0.9901
vn 0.0415 0.1951 0.9799
vn 0.1414 0.2144 0.9665
vn -0.1437 0.1584 0.9768
vn -0.0699 0.5814 0.8106
vn -0.0521 0.1463 0.9879
vn -0.8547 -0.3452 0.3877
vn 0.9273 -0.3276 0.1811
vn 0.3782 0.9257 -0.0033
vn -0.8537 0.4029 0.3300
vn -0.5048 -0.8349 0.2193
vn 0.4206 -0.8830 0.2085
vn 0.9425 0.3334 0.0231
vn -0.4360 0.8969 0.0743
vn -0.9174 0.3957 0.0430
vn -0.8982 -0.4395 0.0063
vn -0.4401 -0.8975 0.0268
vn 0.4551 -0.8902 0.0212
vn 0.9183 -0.3911 0.0611
vn 0.9086 0.4119 0.0693
vn 0.3524 0.9337 -0.0629
vn 0.0027 -0.0536 -0.9986
vn -0.1377 -0.0885 -0.9865
vn -0.1650 -0.0169 -0.9862
vn 0.2027 -0.1614 -0.9658
vn 0.0338 -0.0205 -0.9992
vn 0.1150 0.1386 -0.9837
vn -0.0891 0.1246 -0.9882
vn -0.1490 0.0850 -0.9852
vn -0.0312 0.0236 -0.9992
vn 0.4335 -0.8838 0.1761
vn 0.9141 0.3729 0.1595
vn -0.3580 0.9301 0.0822
vn -0.9186 -0.3950 0.0104
vn 0.9115 -0.4029 0.0833
vn 0.4194 0.8777 0.2319
vn -0.9031 0.3955 -0.1674
vn 0.4189 0.9065 -0.0529
vn 0.9363 0.3429 -0.0760
vn 0.9175 -0.3909 -0.0738
vn 0.4644 -0.8847 -0.0417
vn -0.4642 -0.8854 -0.0239
vn -0.9029 -0.4298 0.0056
vn -0.9067 0.4205 -0.0326
vn -0.3999 0.9163 -0.0228
vn -0.4175 0.3008 0.8574
vn -0.6922 0.5358 0.4834
vn -0.7336 0.5328 -0.4218
vn -0.3333 0.2686 -0.9038
vn 0.3678 -0.2768 -0.8878
vn 0.7454 -0.5135 -0.4252
vn 0.7645 -0.5439 0.3461
vn 0.3748 -0.2514 0.8924
vn 0.2204 -0.2877 -0.9320
vn 0.5931 0.8027 0.0632
vn 0.7449 0.6537 -0.1337
vn 0.8260 0.5509 0.1192
vn 0.5144 0.8494 0.1180
vn 0.7967 0.5874 -0.1421
vn 0.5015 0.8594 -0.0996
vn 0.4737 0.8782 0.0665
vn 0.6749 0.7289 0.1150
vn 0.6259 0.7796 0.0191
vn -0.5947 0.1042 -0.7972
vn -0.8051 0.4978 0.3224
vn 0.2727 -0.1730 0.9464
vn 0.7299 -0.5373 -0.4226
vn -0.7678 0.4681 -0.4374
vn -0.4300 0.1874 0.8832
vn 0.8473 -0.4133 0.3335
s off
f 25/1/1 34/2/1 33/3/1 26/4/1
f 26/4/2 33/3/2 35/5/2 27/6/2
f 27/6/3 35/5/3 36/7/3 28/8/3
f 28/8/4 36/7/4 37/9/4 29/10/4
f 29/10/5 37/9/5 38/11/5 30/12/5
f 30/12/6 38/11/6 39/13/6 31/14/6
f 10/15/7 8/16/7 44/17/7 45/18/7
f 31/14/8 39/13/8 40/19/8 32/20/8
f 32/20/9 40/19/9 34/21/9 25/22/9
f 1/23/10 3/24/10 66/25/10 65/26/10
f 64/27/11 24/28/11 17/29/11 57/30/11
f 63/31/12 23/32/12 24/28/12 64/27/12
f 62/33/13 22/34/13 23/32/13 63/31/13
f 61/35/14 21/36/14 22/34/14 62/33/14
f 60/37/15 20/38/15 21/36/15 61/35/15
f 59/39/16 19/40/16 20/38/16 60/37/16
f 58/41/17 18/42/17 19/40/17 59/39/17
f 57/43/18 17/44/18 18/42/18 58/41/18
f 18/42/19 17/44/19 56/45/19 55/46/19
f 73/47/20 32/20/20 25/22/20 80/48/20
f 74/49/21 31/14/21 32/20/21 73/47/21
f 75/50/22 30/12/22 31/14/22 74/49/22
f 76/51/23 29/10/23 30/12/23 75/50/23
f 77/52/24 28/8/24 29/10/24 76/51/24
f 78/53/25 27/6/25 28/8/25 77/52/25
f 79/54/26 26/4/26 27/6/26 78/53/26
f 2/55/27 4/56/27 33/57/27 34/58/27
f 4/56/28 6/59/28 35/60/28 33/57/28
f 6/59/29 8/16/29 36/61/29 35/60/29
f 8/16/30 10/15/30 37/62/30 36/61/30
f 10/15/31 12/63/31 38/64/31 37/62/31
f 12/63/32 14/65/32 39/66/32 38/64/32
f 14/65/33 16/67/33 40/68/33 39/66/33
f 16/67/34 2/55/34 34/58/34 40/68/34
f 41/69/35 42/70/35 48/71/35 47/72/35 46/73/35 45/74/35 44/75/35 43/76/35
f 6/59/36 4/56/36 41/77/36 43/78/36
f 16/67/37 14/65/37 47/79/37 48/80/37
f 12/63/38 10/15/38 45/18/38 46/81/38
f 8/16/39 6/59/39 43/78/39 44/17/39
f 4/56/40 2/55/40 42/82/40 41/77/40
f 2/55/41 16/67/41 48/80/41 42/82/41
f 14/65/42 12/63/42 46/81/42 47/79/42
f 24/28/43 49/83/43 56/84/43 17/29/43
f 23/32/44 50/85/44 49/83/44 24/28/44
f 22/34/45 51/86/45 50/85/45 23/32/45
f 21/36/46 52/87/46 51/86/46 22/34/46
f 20/38/47 53/88/47 52/87/47 21/36/47
f 19/40/48 54/89/48 53/88/48 20/38/48
f 18/42/49 55/46/49 54/89/49 19/40/49
f 79/54/50 80/90/50 25/1/50 26/4/50
f 3/24/51 1/23/51 57/91/51 58/92/51
f 5/93/52 3/24/52 58/92/52 59/94/52
f 7/95/53 5/93/53 59/94/53 60/96/53
f 9/97/54 7/95/54 60/96/54 61/98/54
f 11/99/55 9/97/55 61/98/55 62/100/55
f 13/101/56 11/99/56 62/100/56 63/102/56
f 15/103/57 13/101/57 63/102/57 64/104/57
f 1/23/58 15/103/58 64/104/58 57/91/58
f 65/105/59 66/106/59 67/107/59 68/108/59 69/109/59 70/110/59 71/111/59 72/112/59
f 15/103/60 1/23/60 65/26/60 72/113/60
f 11/99/61 13/101/61 71/114/61 70/115/61
f 7/95/62 9/97/62 69/116/62 68/117/62
f 3/24/63 5/93/63 67/118/63 66/25/63
f 13/101/64 15/103/64 72/113/64 71/114/64
f 9/97/65 11/99/65 70/115/65 69/116/65
f 5/93/66 7/95/66 68/117/66 67/118/66
f 55/46/67 56/45/67 80/90/67 79/54/67
f 55/46/68 79/54/68 78/53/68 54/89/68
f 54/89/69 78/53/69 77/52/69 53/88/69
f 53/88/70 77/52/70 76/51/70 52/87/70
f 52/87/71 76/51/71 75/50/71 51/86/71
f 51/86/72 75/50/72 74/49/72 50/85/72
f 50/85/73 74/49/73 73/47/73 49/83/73
f 49/83/74 73/47/74 80/48/74 56/84/74
f 97/119/75 98/120/75 84/121/75 82/122/75
f 98/120/76 99/123/76 86/124/76 84/121/76
f 99/123/77 100/125/77 88/126/77 86/124/77
f 100/125/78 101/127/78 90/128/78 88/126/78
f 101/127/79 102/129/79 92/130/79 90/128/79
f 102/129/80 103/131/80 94/132/80 92/130/80
f 103/131/81 104/133/81 96/134/81 94/132/81
f 104/133/82 97/135/82 82/136/82 96/134/82
f 81/137/83 105/138/83 106/139/83 83/140/83
f 83/140/84 98/141/84 97/142/84 81/137/84
f 85/143/85 99/144/85 98/141/85 83/140/85
f 87/145/86 100/146/86 99/144/86 85/143/86
f 89/147/87 101/148/87 100/146/87 87/145/87
f 91/149/88 102/150/88 101/148/88 89/147/88
f 93/151/89 103/152/89 102/150/89 91/149/89
f 95/153/90 104/154/90 103/152/90 93/151/90
f 81/137/91 97/142/91 104/154/91 95/153/91
f 105/155/92 112/156/92 111/157/92 110/158/92 109/159/92 108/160/92 107/161/92 106/162/92
f 95/153/93 112/163/93 105/138/93 81/137/93
f 91/149/94 110/164/94 111/165/94 93/151/94
f 87/145/95 108/166/95 109/167/95 89/147/95
f 83/140/96 106/139/96 107/168/96 85/143/96
f 93/151/97 111/165/97 112/163/97 95/153/97
f 89/147/98 109/167/98 110/164/98 91/149/98
f 85/143/99 107/168/99 108/166/99 87/145/99
