# Blender v3.1.2 OBJ File: 'nexus_fa.blend'
# www.blender.org
o Icosphere.003_Icosphere.008
v 0.305314 0.851905 0.208969
v -0.104395 0.851905 0.342092
v -0.357612 0.851905 -0.006426
v -0.104395 0.851905 -0.354945
v 0.305314 0.851905 -0.221822
v 0.119395 1.069768 0.332277
v -0.281702 1.070108 0.204667
v -0.281702 1.070108 -0.217909
v 0.119395 1.069768 -0.345324
v 0.374111 1.059990 -0.006426
v -0.009560 1.273505 -0.002921
v 0.115644 0.835389 0.323664
v 0.355275 0.835389 -0.006158
v -0.272089 0.835389 0.197683
v -0.272089 0.835389 -0.210000
v 0.115644 0.835389 -0.335981
v 0.394728 0.947757 0.117707
v 0.394728 0.947757 -0.131951
v 0.087829 0.923958 0.394434
v 0.247433 0.948824 0.319233
v -0.348637 0.924805 0.190385
v -0.227516 0.948873 0.319927
v -0.288852 0.924836 -0.287025
v -0.374578 0.948873 -0.131800
v 0.247433 0.948824 -0.333488
v 0.009555 0.948854 -0.411077
v 0.329338 1.019799 0.224070
v -0.107892 1.018799 0.370940
v -0.386635 1.017052 -0.004040
v -0.114919 1.017203 -0.383353
v 0.329538 1.019933 -0.237921
v -0.016552 0.798854 0.244130
v 0.234285 0.798891 0.093013
v 0.153549 0.797033 -0.196484
v -0.130123 0.799742 -0.216910
v -0.233030 0.797614 0.053355
v 0.202616 1.225351 0.007936
v 0.065717 1.210499 0.188501
v -0.166783 1.210879 0.119823
v -0.166783 1.210879 -0.128942
v 0.114955 1.214353 -0.171334
v 0.410132 0.902124 -0.007077
v 0.133374 0.902524 -0.387550
v -0.070379 1.189973 0.228230
v -0.240580 1.190158 -0.005014
v -0.070379 1.189974 -0.238153
v 0.095901 0.053736 0.095901
v -0.095901 0.053736 0.095901
v -0.095901 0.053736 -0.095901
v 0.095901 0.053736 -0.095901
v 0.078639 0.595802 0.078639
v -0.078639 0.595802 0.078639
v -0.078639 0.595802 -0.078639
v 0.078639 0.595802 -0.078639
v 0.107380 0.264612 0.107380
v -0.107380 0.264612 0.107380
v -0.107380 0.264612 -0.107380
v 0.107380 0.264612 -0.107380
v 0.036345 0.908180 0.036345
v -0.036345 0.908180 0.036345
v -0.036345 0.908180 -0.036345
v 0.036345 0.908180 -0.036345
v 0.091303 0.444615 0.091303
v -0.091303 0.444615 0.091303
v -0.091303 0.444615 -0.091303
v 0.091303 0.444615 -0.091303
v 0.059782 0.785178 0.059782
v -0.059782 0.785178 0.059782
v -0.059782 0.785178 -0.059782
v 0.059782 0.785178 -0.059782
v 0.118808 0.036394 0.000000
v 0.000000 0.036394 0.118808
v -0.118808 0.036394 0.000000
v 0.000000 0.036394 -0.118808
v 0.043520 0.916397 0.000000
v 0.000000 0.916397 -0.043520
v -0.043520 0.916397 0.000000
v 0.000000 0.916398 0.043520
v 0.097691 0.366011 0.097691
v -0.000000 0.444615 0.125542
v -0.097691 0.366011 0.097691
v 0.000000 0.264612 0.147647
v -0.125542 0.444615 0.000000
v -0.097691 0.366011 -0.097691
v -0.147647 0.264612 -0.000000
v -0.000000 0.444615 -0.125542
v 0.097691 0.366011 -0.097691
v 0.000000 0.264612 -0.147647
v 0.125542 0.444615 -0.000000
v 0.147647 0.264612 0.000000
v 0.085568 0.516727 0.085568
v 0.000000 0.595801 0.108129
v -0.085568 0.516727 0.085568
v -0.108129 0.595801 0.000000
v -0.085568 0.516727 -0.085568
v -0.000000 0.595801 -0.108129
v 0.085568 0.516727 -0.085568
v 0.108129 0.595801 -0.000000
v 0.115014 0.139571 0.115014
v -0.115014 0.139571 0.115014
v -0.115014 0.139571 -0.115014
v 0.115014 0.139571 -0.115014
v 0.069516 0.689502 0.069516
v 0.000000 0.785178 0.082200
v -0.069516 0.689502 0.069516
v -0.082200 0.785178 -0.000000
v -0.069516 0.689502 -0.069516
v 0.000000 0.785178 -0.082200
v 0.069516 0.689502 -0.069516
v 0.082200 0.785178 0.000000
v 0.049807 0.864622 0.049807
v -0.049807 0.864622 0.049807
v -0.049807 0.864622 -0.049807
v 0.049807 0.864622 -0.049807
v 0.000000 0.000000 0.000000
v 0.000000 0.933643 0.000000
v -0.000000 0.366011 0.134325
v -0.134325 0.366011 0.000000
v -0.000000 0.366011 -0.134325
v 0.134325 0.366011 0.000000
v 0.000000 0.516727 0.117656
v -0.117656 0.516727 0.000000
v 0.000000 0.516727 -0.117656
v 0.117656 0.516727 0.000000
v 0.000000 0.137861 0.158678
v -0.158678 0.137861 -0.000000
v 0.000000 0.137861 -0.158678
v 0.158678 0.137861 0.000000
v 0.000000 0.689502 0.095585
v -0.095585 0.689502 -0.000000
v 0.000000 0.689502 -0.095585
v 0.095585 0.689502 0.000000
v 0.000000 0.865432 0.068364
v -0.068364 0.865432 0.000000
v 0.000000 0.865432 -0.068364
v 0.068364 0.865432 0.000000
vt 0.934984 0.551585
vt 0.934646 0.552454
vt 0.933288 0.551243
vt 0.934984 0.554179
vt 0.935833 0.552762
vt 0.948547 0.551585
vt 0.948201 0.552476
vt 0.946852 0.551791
vt 0.948547 0.554179
vt 0.949395 0.552711
vt 0.945157 0.551629
vt 0.944810 0.552486
vt 0.943461 0.551791
vt 0.945157 0.554179
vt 0.946004 0.552761
vt 0.936699 0.553429
vt 0.937528 0.552762
vt 0.938375 0.554179
vt 0.933288 0.553399
vt 0.932441 0.552711
vt 0.931593 0.554179
vt 0.946852 0.553397
vt 0.943461 0.553397
vt 0.942613 0.552761
vt 0.941766 0.554179
vt 0.940051 0.553429
vt 0.940916 0.552762
vt 0.939221 0.552762
vt 0.935832 0.555648
vt 0.937399 0.555763
vt 0.936679 0.557116
vt 0.944140 0.551297
vt 0.941766 0.551629
vt 0.940884 0.551293
vt 0.936679 0.551791
vt 0.938375 0.551629
vt 0.938375 0.552295
vt 0.940070 0.551791
vt 0.950243 0.551243
vt 0.941766 0.552295
vt 0.933288 0.555158
vt 0.932441 0.555648
vt 0.934136 0.555648
vt 0.933288 0.557116
vt 0.946852 0.555158
vt 0.946004 0.555648
vt 0.947700 0.555648
vt 0.946852 0.557116
vt 0.943461 0.555158
vt 0.942613 0.555648
vt 0.944309 0.555648
vt 0.943461 0.557116
vt 0.950207 0.551243
vt 0.947490 0.551287
vt 0.937293 0.551292
vt 0.933897 0.551256
vt 0.939311 0.555801
vt 0.940563 0.555526
vt 0.940070 0.557116
vt 0.661948 0.606970
vt 0.661296 0.610575
vt 0.659928 0.610575
vt 0.661296 0.606109
vt 0.661948 0.614179
vt 0.661296 0.615040
vt 0.661948 0.614179
vt 0.661296 0.610575
vt 0.661948 0.606970
vt 0.694064 0.609209
vt 0.694373 0.610575
vt 0.695021 0.610575
vt 0.694373 0.608939
vt 0.694064 0.611941
vt 0.694373 0.612210
vt 0.694064 0.611941
vt 0.694373 0.610575
vt 0.694064 0.609209
vt 0.676640 0.607143
vt 0.676640 0.610575
vt 0.673685 0.610575
vt 0.673685 0.606903
vt 0.676640 0.614007
vt 0.673685 0.614247
vt 0.669874 0.614611
vt 0.669874 0.610575
vt 0.669874 0.606539
vt 0.676640 0.615293
vt 0.673685 0.615624
vt 0.676640 0.614007
vt 0.673685 0.614247
vt 0.669874 0.614611
vt 0.669874 0.616124
vt 0.676640 0.610575
vt 0.673685 0.610575
vt 0.676640 0.607143
vt 0.673685 0.606903
vt 0.669874 0.606539
vt 0.669874 0.610575
vt 0.676640 0.605856
vt 0.673685 0.605526
vt 0.669874 0.605025
vt 0.682322 0.607619
vt 0.682322 0.610575
vt 0.679350 0.610575
vt 0.679350 0.607358
vt 0.682322 0.613531
vt 0.679350 0.613791
vt 0.682322 0.614639
vt 0.679350 0.614997
vt 0.682322 0.613531
vt 0.679350 0.613791
vt 0.682322 0.610575
vt 0.679350 0.610575
vt 0.682322 0.607619
vt 0.679350 0.607358
vt 0.682322 0.606510
vt 0.679350 0.606152
vt 0.665110 0.610575
vt 0.665174 0.606252
vt 0.665174 0.614898
vt 0.665110 0.616539
vt 0.665174 0.614898
vt 0.665110 0.610575
vt 0.665174 0.606252
vt 0.665110 0.604610
vt 0.689440 0.608328
vt 0.689440 0.610575
vt 0.685844 0.610575
vt 0.685844 0.607962
vt 0.689440 0.612822
vt 0.685844 0.613188
vt 0.689440 0.613664
vt 0.685844 0.614167
vt 0.689440 0.612822
vt 0.685844 0.613188
vt 0.689440 0.610575
vt 0.685844 0.610575
vt 0.689440 0.608328
vt 0.685844 0.607962
vt 0.689440 0.607485
vt 0.685844 0.606982
vt 0.692457 0.610575
vt 0.692427 0.608703
vt 0.692427 0.612447
vt 0.692457 0.613144
vt 0.692427 0.612447
vt 0.692457 0.610575
vt 0.692427 0.608703
vt 0.692457 0.608005
vn 0.0191 -0.6205 0.7840
vn 0.3691 0.2957 0.8811
vn -0.7436 -0.6152 0.2618
vn -0.7275 0.2732 0.6294
vn -0.4751 -0.6236 -0.6208
vn -0.8223 0.2770 -0.4970
vn 0.8696 0.4294 0.2438
vn 0.4919 0.4398 0.7514
vn 0.0723 0.3778 0.9230
vn -0.5549 0.4294 0.7125
vn -0.8657 0.3651 0.3424
vn -0.8482 0.4299 -0.3095
vn -0.5926 0.3697 -0.7156
vn 0.0453 0.4452 -0.8943
vn 0.4890 0.4442 -0.7507
vn 0.8697 0.4303 -0.2419
vn 0.2039 0.9509 0.2328
vn -0.0121 -0.9508 -0.3096
vn 0.7904 -0.5574 0.2539
vn 0.2735 -0.9059 -0.3234
vn 0.7882 -0.5607 -0.2536
vn 0.9749 0.2225 -0.0000
vn 0.4580 -0.5035 0.7326
vn -0.5602 -0.4952 0.6640
vn -0.8024 -0.4996 -0.3265
vn 0.4884 -0.5525 -0.6754
vn 0.0026 -0.5502 -0.8350
vn 0.2997 0.2570 -0.9188
vn 0.7957 -0.1662 0.5824
vn -0.2393 -0.1702 0.9559
vn -0.9826 -0.1736 0.0661
vn -0.3652 -0.1802 -0.9133
vn 0.7951 -0.1704 -0.5820
vn 0.4721 0.7415 0.4768
vn -0.4419 0.6595 0.6081
vn 0.6825 0.6860 0.2522
vn 0.0255 0.6770 0.7356
vn -0.0921 0.9440 0.3169
vn -0.7144 0.6595 -0.2339
vn -0.7142 0.6586 0.2370
vn -0.3394 0.9407 0.0000
vn 0.0474 0.7054 -0.7073
vn -0.4376 0.6702 -0.5994
vn -0.0598 0.9454 -0.3203
vn -0.1828 -0.9482 0.2597
vn 0.0024 -1.0000 0.0038
vn 0.0022 -1.0000 0.0058
vn 0.1837 -0.9519 0.2451
vn -0.4421 -0.8898 0.1132
vn -0.3021 -0.9489 -0.0913
vn -0.0286 -0.8895 0.4561
vn 0.2752 -0.9563 -0.0989
vn -0.2425 -0.8917 -0.3822
vn -0.0087 -0.9999 -0.0112
vn 0.6192 0.7297 -0.2900
vn 0.4051 -0.8996 0.1631
vn 0.4519 0.6917 -0.5633
vn 0.2264 0.9592 -0.1695
vn 0.2605 -0.9297 0.2605
vn -0.2605 -0.9297 0.2605
vn -0.2605 -0.9297 -0.2605
vn 0.2605 -0.9297 -0.2605
vn 0.3139 0.8961 -0.3139
vn -0.3139 0.8961 -0.3139
vn -0.3139 0.8961 0.3139
vn 0.3139 0.8961 0.3139
vn 0.3492 0.1040 0.9312
vn -0.3492 0.1040 0.9312
vn -0.3485 0.1221 0.9293
vn 0.3485 0.1221 0.9293
vn -0.9312 0.1040 0.3492
vn -0.9312 0.1040 -0.3492
vn -0.9293 0.1221 -0.3485
vn -0.9293 0.1221 0.3485
vn -0.3492 0.1040 -0.9312
vn 0.3492 0.1040 -0.9312
vn 0.3485 0.1221 -0.9293
vn -0.3485 0.1221 -0.9293
vn 0.9312 0.1040 -0.3492
vn 0.9312 0.1040 0.3492
vn 0.9293 0.1221 0.3485
vn 0.9293 0.1221 -0.3485
vn 0.3489 0.1121 0.9304
vn -0.3489 0.1121 0.9304
vn -0.3493 0.1019 0.9315
vn 0.3493 0.1019 0.9315
vn -0.9304 0.1121 0.3489
vn -0.9304 0.1121 -0.3489
vn -0.9315 0.1019 -0.3493
vn -0.9315 0.1019 0.3493
vn -0.3489 0.1121 -0.9304
vn 0.3489 0.1121 -0.9304
vn 0.3493 0.1019 -0.9315
vn -0.3493 0.1019 -0.9315
vn 0.9304 0.1121 -0.3489
vn 0.9304 0.1121 0.3489
vn 0.9315 0.1019 0.3493
vn 0.9315 0.1019 -0.3493
vn 0.3514 0.0798 0.9328
vn -0.3514 0.0798 0.9328
vn -0.3114 -0.3142 0.8968
vn 0.3114 -0.3142 0.8968
vn -0.9328 0.0798 0.3514
vn -0.9328 0.0798 -0.3514
vn -0.8968 -0.3142 -0.3114
vn -0.8968 -0.3142 0.3114
vn -0.3514 0.0798 -0.9328
vn 0.3514 0.0798 -0.9328
vn 0.3114 -0.3142 -0.8968
vn -0.3114 -0.3142 -0.8968
vn 0.9328 0.0798 -0.3514
vn 0.9328 0.0798 0.3514
vn 0.8968 -0.3142 0.3114
vn 0.8968 -0.3142 -0.3114
vn 0.3481 0.1299 0.9284
vn -0.3481 0.1299 0.9284
vn -0.3484 0.1244 0.9291
vn 0.3484 0.1244 0.9291
vn -0.9284 0.1299 0.3481
vn -0.9284 0.1299 -0.3481
vn -0.9291 0.1244 -0.3484
vn -0.9291 0.1244 0.3484
vn -0.3481 0.1299 -0.9284
vn 0.3481 0.1299 -0.9284
vn 0.3484 0.1244 -0.9291
vn -0.3484 0.1244 -0.9291
vn 0.9284 0.1299 -0.3481
vn 0.9284 0.1299 0.3481
vn 0.9291 0.1244 0.3484
vn 0.9291 0.1244 -0.3484
vn 0.3007 0.3947 0.8682
vn -0.3007 0.3947 0.8682
vn -0.3468 0.1595 0.9243
vn 0.3468 0.1595 0.9243
vn -0.8682 0.3947 0.3007
vn -0.8682 0.3947 -0.3007
vn -0.9243 0.1595 -0.3468
vn -0.9243 0.1595 0.3468
vn -0.3007 0.3947 -0.8682
vn 0.3007 0.3947 -0.8682
vn 0.3468 0.1595 -0.9243
vn -0.3468 0.1595 -0.9243
vn 0.8682 0.3947 -0.3007
vn 0.8682 0.3947 0.3007
vn 0.9243 0.1595 0.3468
vn 0.9243 0.1595 -0.3468
s off
f 12/1/1 19/2/1 2/3/1
f 6/4/2 19/2/2 20/5/2
f 14/6/3 21/7/3 3/8/3
f 7/9/4 21/7/4 22/10/4
f 15/11/5 23/12/5 4/13/5
f 8/14/6 23/12/6 24/15/6
f 27/16/7 17/17/7 10/18/7
f 20/5/8 27/16/8 6/4/8
f 28/19/9 19/2/9 6/4/9
f 22/20/10 28/19/10 7/21/10
f 29/22/11 21/7/11 7/9/11
f 24/15/12 29/22/12 8/14/12
f 30/23/13 23/12/13 8/14/13
f 26/24/14 30/23/14 9/25/14
f 31/26/15 25/27/15 9/25/15
f 18/28/16 31/26/16 10/18/16
f 38/29/17 37/30/17 11/31/17
f 35/32/18 4/13/18 16/33/18 34/34/18
f 17/17/19 1/35/19 13/36/19 42/37/19
f 16/33/20 5/38/20 34/34/20
f 13/36/21 5/38/21 18/28/21 42/37/21
f 42/37/22 18/28/22 10/18/22 17/17/22
f 12/1/23 1/35/23 20/5/23 19/2/23
f 14/6/24 2/39/24 22/10/24 21/7/24
f 15/11/25 3/8/25 24/15/25 23/12/25
f 25/27/26 5/38/26 16/33/26 43/40/26
f 16/33/27 4/13/27 26/24/27 43/40/27
f 43/40/28 26/24/28 9/25/28 25/27/28
f 27/16/29 20/5/29 1/35/29 17/17/29
f 28/19/30 22/20/30 2/3/30 19/2/30
f 29/22/31 24/15/31 3/8/31 21/7/31
f 30/23/32 26/24/32 4/13/32 23/12/32
f 31/26/33 18/28/33 5/38/33 25/27/33
f 38/29/34 6/4/34 27/16/34 37/30/34
f 44/41/35 39/42/35 7/21/35 28/19/35
f 27/16/36 10/18/36 37/30/36
f 44/41/37 28/19/37 6/4/37 38/43/37
f 44/41/38 38/43/38 11/44/38 39/42/38
f 45/45/39 40/46/39 8/14/39 29/22/39
f 45/45/40 29/22/40 7/9/40 39/47/40
f 45/45/41 39/47/41 11/48/41 40/46/41
f 46/49/42 41/50/42 9/25/42 30/23/42
f 46/49/43 30/23/43 8/14/43 40/51/43
f 40/51/44 11/52/44 41/50/44 46/49/44
f 32/53/45 2/39/45 14/6/45 36/54/45
f 33/55/46 32/53/46 36/54/46
f 34/34/47 33/55/47 36/54/47
f 33/55/48 1/35/48 12/1/48 32/56/48
f 14/6/49 3/8/49 36/54/49
f 36/54/50 3/8/50 15/11/50 35/32/50
f 12/1/51 2/3/51 32/56/51
f 34/34/52 5/38/52 13/36/52 33/55/52
f 15/11/53 4/13/53 35/32/53
f 35/32/54 34/34/54 36/54/54
f 37/57/55 10/18/55 31/26/55 41/58/55
f 13/36/56 1/35/56 33/55/56
f 31/26/57 9/25/57 41/58/57
f 41/58/58 11/59/58 37/57/58
f 47/60/59 72/61/59 115/62/59 71/63/59
f 72/61/60 48/64/60 73/65/60 115/62/60
f 115/62/61 73/65/61 49/66/61 74/67/61
f 71/63/62 115/62/62 74/67/62 50/68/62
f 62/69/63 76/70/63 116/71/63 75/72/63
f 76/70/64 61/73/64 77/74/64 116/71/64
f 116/71/65 77/74/65 60/75/65 78/76/65
f 75/72/66 116/71/66 78/76/66 59/77/66
f 63/78/67 80/79/67 117/80/67 79/81/67
f 80/79/68 64/82/68 81/83/68 117/80/68
f 117/80/69 81/83/69 56/84/69 82/85/69
f 79/81/70 117/80/70 82/85/70 55/86/70
f 64/82/71 83/87/71 118/88/71 81/83/71
f 83/87/72 65/89/72 84/90/72 118/88/72
f 118/88/73 84/90/73 57/91/73 85/92/73
f 81/83/74 118/88/74 85/92/74 56/84/74
f 65/89/75 86/93/75 119/94/75 84/90/75
f 86/93/76 66/95/76 87/96/76 119/94/76
f 119/94/77 87/96/77 58/97/77 88/98/77
f 84/90/78 119/94/78 88/98/78 57/91/78
f 66/95/79 89/99/79 120/100/79 87/96/79
f 89/99/80 63/78/80 79/81/80 120/100/80
f 120/100/81 79/81/81 55/86/81 90/101/81
f 87/96/82 120/100/82 90/101/82 58/97/82
f 51/102/83 92/103/83 121/104/83 91/105/83
f 92/103/84 52/106/84 93/107/84 121/104/84
f 121/104/85 93/107/85 64/82/85 80/79/85
f 91/105/86 121/104/86 80/79/86 63/78/86
f 52/106/87 94/108/87 122/109/87 93/107/87
f 94/108/88 53/110/88 95/111/88 122/109/88
f 122/109/89 95/111/89 65/89/89 83/87/89
f 93/107/90 122/109/90 83/87/90 64/82/90
f 53/110/91 96/112/91 123/113/91 95/111/91
f 96/112/92 54/114/92 97/115/92 123/113/92
f 123/113/93 97/115/93 66/95/93 86/93/93
f 95/111/94 123/113/94 86/93/94 65/89/94
f 54/114/95 98/116/95 124/117/95 97/115/95
f 98/116/96 51/102/96 91/105/96 124/117/96
f 124/117/97 91/105/97 63/78/97 89/99/97
f 97/115/98 124/117/98 89/99/98 66/95/98
f 55/86/99 82/85/99 125/118/99 99/119/99
f 82/85/100 56/84/100 100/120/100 125/118/100
f 125/118/101 100/120/101 48/64/101 72/61/101
f 99/119/102 125/118/102 72/61/102 47/60/102
f 56/84/103 85/92/103 126/121/103 100/120/103
f 85/92/104 57/91/104 101/122/104 126/121/104
f 126/121/105 101/122/105 49/66/105 73/65/105
f 100/120/106 126/121/106 73/65/106 48/64/106
f 57/91/107 88/98/107 127/123/107 101/122/107
f 88/98/108 58/97/108 102/124/108 127/123/108
f 127/123/109 102/124/109 50/68/109 74/67/109
f 101/122/110 127/123/110 74/67/110 49/66/110
f 58/97/111 90/101/111 128/125/111 102/124/111
f 90/101/112 55/86/112 99/119/112 128/125/112
f 128/125/113 99/119/113 47/60/113 71/63/113
f 102/124/114 128/125/114 71/63/114 50/68/114
f 67/126/115 104/127/115 129/128/115 103/129/115
f 104/127/116 68/130/116 105/131/116 129/128/116
f 129/128/117 105/131/117 52/106/117 92/103/117
f 103/129/118 129/128/118 92/103/118 51/102/118
f 68/130/119 106/132/119 130/133/119 105/131/119
f 106/132/120 69/134/120 107/135/120 130/133/120
f 130/133/121 107/135/121 53/110/121 94/108/121
f 105/131/122 130/133/122 94/108/122 52/106/122
f 69/134/123 108/136/123 131/137/123 107/135/123
f 108/136/124 70/138/124 109/139/124 131/137/124
f 131/137/125 109/139/125 54/114/125 96/112/125
f 107/135/126 131/137/126 96/112/126 53/110/126
f 70/138/127 110/140/127 132/141/127 109/139/127
f 110/140/128 67/126/128 103/129/128 132/141/128
f 132/141/129 103/129/129 51/102/129 98/116/129
f 109/139/130 132/141/130 98/116/130 54/114/130
f 59/77/131 78/76/131 133/142/131 111/143/131
f 78/76/132 60/75/132 112/144/132 133/142/132
f 133/142/133 112/144/133 68/130/133 104/127/133
f 111/143/134 133/142/134 104/127/134 67/126/134
f 60/75/135 77/74/135 134/145/135 112/144/135
f 77/74/136 61/73/136 113/146/136 134/145/136
f 134/145/137 113/146/137 69/134/137 106/132/137
f 112/144/138 134/145/138 106/132/138 68/130/138
f 61/73/139 76/70/139 135/147/139 113/146/139
f 76/70/140 62/69/140 114/148/140 135/147/140
f 135/147/141 114/148/141 70/138/141 108/136/141
f 113/146/142 135/147/142 108/136/142 69/134/142
f 62/69/143 75/72/143 136/149/143 114/148/143
f 75/72/144 59/77/144 111/143/144 136/149/144
f 136/149/145 111/143/145 67/126/145 110/140/145
f 114/148/146 136/149/146 110/140/146 70/138/146
